<?xml version="1.0" encoding="UTF-8" standalone="no"?>
<svg
   version="1.1"
   id="Layer_1"
   x="0px"
   y="0px"
   viewBox="0 0 208.8 195.9"
   style="enable-background:new 0 0 208.8 195.9;"
   xml:space="preserve"
   sodipodi:docname="logo-cube.svg"
   inkscape:version="1.3.2 (091e20ef0f, 2023-11-25, custom)"
   inkscape:export-filename="logo-cube.png"
   inkscape:export-xdpi="96"
   inkscape:export-ydpi="96"
   xmlns:inkscape="http://www.inkscape.org/namespaces/inkscape"
   xmlns:sodipodi="http://sodipodi.sourceforge.net/DTD/sodipodi-0.dtd"
   xmlns="http://www.w3.org/2000/svg"
   xmlns:svg="http://www.w3.org/2000/svg"><defs
   id="defs2" /><sodipodi:namedview
   id="namedview2"
   pagecolor="#505050"
   bordercolor="#eeeeee"
   borderopacity="1"
   inkscape:showpageshadow="0"
   inkscape:pageopacity="0"
   inkscape:pagecheckerboard="0"
   inkscape:deskcolor="#505050"
   inkscape:zoom="2.5783287"
   inkscape:cx="100.64659"
   inkscape:cy="132.06229"
   inkscape:window-width="1828"
   inkscape:window-height="1066"
   inkscape:window-x="0"
   inkscape:window-y="0"
   inkscape:window-maximized="1"
   inkscape:current-layer="Layer_1"
   showgrid="false" />
<style
   type="text/css"
   id="style1">
	.st0{fill:#171717;}
	.st1{fill:#13AFF0;}
</style>


<style
   type="text/css"
   id="style1-2">
	.st0{fill:#171717;}
	.st1{fill:#13AFF0;}
</style><rect
   class="st0"
   width="208.8"
   height="196"
   id="rect1-9"
   style="enable-background:new 0 0 208.8 195.9;fill:#171717;fill-opacity:1"
   x="0"
   y="0"
   transform="translate(0.22183356,-0.6416301)" /><g
   id="g50"
   transform="translate(15.482527,18.45047)"><g
     id="g14"
     transform="matrix(0.37769466,0,0,0.37769466,58.081372,66.820247)"><path
       id="path10"
       style="fill:#171717;fill-opacity:1;stroke:#f5efe9;stroke-width:1.518"
       d="M 35.79876,-8.9694866 -8.9570997,16.868404 35.79876,42.708248 80.554619,16.868404 Z"
       transform="translate(68.601631,55.240971)" /><path
       id="path11"
       style="fill:#171717;fill-opacity:1;stroke:#f5efe9;stroke-width:1.518"
       d="m 35.798535,-8.971274 v 51.679688 l 44.75586,25.839843 V 16.86857 Z"
       transform="translate(23.845996,81.080649)" /><path
       id="path12"
       style="fill:#171717;fill-opacity:1;stroke:#f5efe9;stroke-width:1.518"
       d="M 35.79898,-8.971274 -8.9568794,16.86857 V 68.548257 L 35.79898,42.708414 Z"
       transform="translate(113.35727,81.080649)" /><path
       id="path13"
       style="fill:#ffffff;fill-opacity:1;stroke:#f5efe9;stroke-width:1.22135"
       d="M 104.40039,51.321025 68.390908,72.109567 104.40039,92.899681 140.40987,72.109567 Z" /><path
       id="path14"
       style="fill:#ffffff;fill-opacity:1;stroke:#f5efe9;stroke-width:1.22484"
       d="m 144.8345,79.594875 -36.11236,20.849515 v 41.69902 L 144.8345,121.2939 Z" /></g><g
     id="g19"
     transform="matrix(0.37769466,0,0,0.37769466,41.177323,76.579818)"><path
       id="path15"
       style="fill:#171717;fill-opacity:1;stroke:#f5efe9;stroke-width:1.518"
       d="M 35.79876,-8.9694866 -8.9570997,16.868404 35.79876,42.708248 80.554619,16.868404 Z"
       transform="translate(68.601631,55.240971)" /><path
       id="path16"
       style="fill:#171717;fill-opacity:1;stroke:#f5efe9;stroke-width:1.518"
       d="m 35.798535,-8.971274 v 51.679688 l 44.75586,25.839843 V 16.86857 Z"
       transform="translate(23.845996,81.080649)" /><path
       id="path17"
       style="fill:#171717;fill-opacity:1;stroke:#f5efe9;stroke-width:1.518"
       d="M 35.79898,-8.971274 -8.9568794,16.86857 V 68.548257 L 35.79898,42.708414 Z"
       transform="translate(113.35727,81.080649)" /><path
       id="path18"
       style="fill:#ffffff;fill-opacity:1;stroke:#f5efe9;stroke-width:1.22135"
       d="M 104.40039,51.321025 68.390908,72.109567 104.40039,92.899681 140.40987,72.109567 Z" /><path
       id="path19"
       style="fill:#ffffff;fill-opacity:1;stroke:#f5efe9;stroke-width:1.22484"
       d="m 144.8345,79.594875 -36.11236,20.849515 v 41.69902 L 144.8345,121.2939 Z" /></g><g
     id="g29"
     transform="matrix(0.37769466,0,0,0.37769466,58.081372,47.301105)"><path
       id="path25"
       style="fill:#171717;fill-opacity:1;stroke:#f5efe9;stroke-width:1.518"
       d="M 35.79876,-8.9694866 -8.9570997,16.868404 35.79876,42.708248 80.554619,16.868404 Z"
       transform="translate(68.601631,55.240971)" /><path
       id="path26"
       style="fill:#171717;fill-opacity:1;stroke:#f5efe9;stroke-width:1.518"
       d="m 35.798535,-8.971274 v 51.679688 l 44.75586,25.839843 V 16.86857 Z"
       transform="translate(23.845996,81.080649)" /><path
       id="path27"
       style="fill:#171717;fill-opacity:1;stroke:#f5efe9;stroke-width:1.518"
       d="M 35.79898,-8.971274 -8.9568794,16.86857 V 68.548257 L 35.79898,42.708414 Z"
       transform="translate(113.35727,81.080649)" /><path
       id="path28"
       style="fill:#ffffff;fill-opacity:1;stroke:#f5efe9;stroke-width:1.22135"
       d="M 104.40039,51.321025 68.390908,72.109567 104.40039,92.899681 140.40987,72.109567 Z" /><path
       id="path29"
       style="fill:#ffffff;fill-opacity:1;stroke:#f5efe9;stroke-width:1.22484"
       d="m 144.8345,79.594875 -36.11236,20.849515 v 41.69902 L 144.8345,121.2939 Z" /></g><g
     id="g34"
     transform="matrix(0.37769466,0,0,0.37769466,41.177323,37.541534)"><path
       id="path30"
       style="fill:#171717;fill-opacity:1;stroke:#f5efe9;stroke-width:1.518"
       d="M 35.79876,-8.9694866 -8.9570997,16.868404 35.79876,42.708248 80.554619,16.868404 Z"
       transform="translate(68.601631,55.240971)" /><path
       id="path31"
       style="fill:#171717;fill-opacity:1;stroke:#f5efe9;stroke-width:1.518"
       d="m 35.798535,-8.971274 v 51.679688 l 44.75586,25.839843 V 16.86857 Z"
       transform="translate(23.845996,81.080649)" /><path
       id="path32"
       style="fill:#171717;fill-opacity:1;stroke:#f5efe9;stroke-width:1.518"
       d="M 35.79898,-8.971274 -8.9568794,16.86857 V 68.548257 L 35.79898,42.708414 Z"
       transform="translate(113.35727,81.080649)" /><path
       id="path33"
       style="fill:#ffffff;fill-opacity:1;stroke:#f5efe9;stroke-width:1.22135"
       d="M 104.40039,51.321025 68.390908,72.109567 104.40039,92.899681 140.40987,72.109567 Z" /><path
       id="path34"
       style="fill:#ffffff;fill-opacity:1;stroke:#f5efe9;stroke-width:1.22484"
       d="m 144.8345,79.594875 -36.11236,20.849515 v 41.69902 L 144.8345,121.2939 Z" /></g><g
     id="g44"
     transform="matrix(0.37769466,0,0,0.37769466,58.081372,8.2631899)"><path
       id="path40"
       style="fill:#171717;fill-opacity:1;stroke:#f5efe9;stroke-width:1.518"
       d="M 35.79876,-8.9694866 -8.9570997,16.868404 35.79876,42.708248 80.554619,16.868404 Z"
       transform="translate(68.601631,55.240971)" /><path
       id="path41"
       style="fill:#171717;fill-opacity:1;stroke:#f5efe9;stroke-width:1.518"
       d="m 35.798535,-8.971274 v 51.679688 l 44.75586,25.839843 V 16.86857 Z"
       transform="translate(23.845996,81.080649)" /><path
       id="path42"
       style="fill:#171717;fill-opacity:1;stroke:#f5efe9;stroke-width:1.518"
       d="M 35.79898,-8.971274 -8.9568794,16.86857 V 68.548257 L 35.79898,42.708414 Z"
       transform="translate(113.35727,81.080649)" /><path
       id="path43"
       style="fill:#ffffff;fill-opacity:1;stroke:#f5efe9;stroke-width:1.22135"
       d="M 104.40039,51.321025 68.390908,72.109567 104.40039,92.899681 140.40987,72.109567 Z" /><path
       id="path44"
       style="fill:#ffffff;fill-opacity:1;stroke:#f5efe9;stroke-width:1.22484"
       d="m 144.8345,79.594875 -36.11236,20.849515 v 41.69902 L 144.8345,121.2939 Z" /></g><g
     id="g51"
     transform="matrix(0.37769466,0,0,0.37769466,40.890637,18.022392)"><path
       id="path36"
       style="fill:#171717;fill-opacity:1;stroke:#f5efe9;stroke-width:1.518"
       d="M 35.79876,-8.9694866 -8.9570997,16.868404 35.79876,42.708248 80.554619,16.868404 Z"
       transform="translate(68.601631,55.240971)" /><path
       id="path37"
       style="fill:#171717;fill-opacity:1;stroke:#f5efe9;stroke-width:1.518"
       d="m 35.798535,-8.971274 v 51.679688 l 44.75586,25.839843 V 16.86857 Z"
       transform="translate(23.845996,81.080649)" /><path
       id="path38"
       style="fill:#171717;fill-opacity:1;stroke:#f5efe9;stroke-width:1.518"
       d="M 35.79898,-8.971274 -8.9568794,16.86857 V 68.548257 L 35.79898,42.708414 Z"
       transform="translate(113.35727,81.080649)" /><path
       id="path39"
       style="fill:#ffffff;fill-opacity:1;stroke:#f5efe9;stroke-width:1.22135"
       d="M 104.40039,51.321025 68.390908,72.109567 104.40039,92.899681 140.40987,72.109567 Z" /><path
       id="path50"
       style="fill:#ffffff;fill-opacity:1;stroke:#f5efe9;stroke-width:1.22484"
       d="m 144.8345,79.594875 -36.11236,20.849515 v 41.69902 L 144.8345,121.2939 Z" /></g></g></svg>
