<svg xmlns="http://www.w3.org/2000/svg" width="306" height="46" viewBox="0 0 306 46">
  <g fill="#FFFFFF">
    <path d="M38.0545455,18.9018182 C38.7236364,20.1563636 53.0254545,45.4981818 53.0254545,45.4981818 L37.5527273,45.4981818 C18.8181818,45.4981818 18.5672727,31.4472727 23.5854545,28.8545455 C14.8036364,39.6436364 48.0909091,46.0836364 38.0545455,18.9018182 Z"/>
    <path d="M30.7781818,45.4981818 C29.3563636,45.4145455 0.752727273,45.4981818 0.752727273,45.4981818 C0.752727273,45.4981818 3.17818182,41.4 7.94545455,33.3709091 C17.0618182,16.4763636 30.2763636,22.8327273 30.0254545,28.4363636 C25.0072727,15.5563636 2.25818182,40.48 30.7781818,45.4981818 Z"/>
    <path d="M12.2109091,25.8436364 C12.9636364,24.6727273 26.9309091,0.250909091 26.9309091,0.250909091 C26.9309091,0.250909091 30.0254545,5.60363636 34.7090909,13.7163636 C44.0763636,29.9418182 32.2,37.3018182 27.2654545,34.1236364 C42.1527273,33.7890909 28.0181818,5.77090909 12.2109091,25.8436364 Z"/>
    <g transform="translate(51.018 13.382)">
      <path d="M15.8072727.585454545C15.5563636.585454545 15.2218182.501818182 14.8872727.501818182L14.8036364.501818182 14.8036364.585454545C13.7163636 3.93090909 10.9563636 11.2909091 9.2 15.3054545 7.52727273 11.2072727 5.10181818 5.35272727 3.51272727.585454545L3.51272727.501818182 3.42909091.501818182C2.92727273.585454545 2.50909091.585454545 2.09090909.585454545 1.67272727.585454545 1.25454545.501818182.836363636.501818182L.669090909.501818182.752727273.669090909C2.67636364 5.26909091 6.18909091 13.6327273 7.77818182 18.1490909L7.77818182 18.2327273 7.86181818 18.2327273C8.11272727 18.1490909 8.36363636 18.1490909 8.69818182 18.1490909 8.94909091 18.1490909 9.2 18.1490909 9.53454545 18.2327273L9.61818182 18.2327273 9.61818182 18.1490909C11.7927273 12.3781818 14.3018182 6.52363636 16.8945455.669090909L16.9781818.501818182 16.7272727.585454545C16.3927273.501818182 16.0581818.585454545 15.8072727.585454545zM32.7018182 16.3927273L32.5345455 16.3927273C30.0254545 16.7272727 28.0181818 16.7272727 25.6763636 16.7272727L25.6763636 15.0545455C25.6763636 12.9636364 25.5927273 10.3709091 25.5927273 7.10909091 25.5927273 4.93454545 25.6763636 2.59272727 25.76.585454545L25.76.418181818 25.5927273.418181818C24.5890909.585454545 24.0872727.585454545 23.1672727.418181818L23 .418181818 23 .585454545C23.0836364 2.59272727 23.1672727 4.93454545 23.1672727 7.10909091L23.1672727 11.4581818C23.1672727 13.6327273 23.0836364 15.9745455 23 17.9818182L23 18.0654545 23.0836364 18.0654545C24.84 17.9818182 26.3454545 17.8981818 27.7672727 17.8981818 29.1890909 17.8981818 30.6945455 17.9818182 32.4509091 18.0654545L32.6181818 18.0654545 32.5345455 17.8981818C32.4509091 17.6472727 32.4509091 17.3963636 32.4509091 17.1454545 32.4509091 16.8945455 32.4509091 16.7272727 32.5345455 16.3927273L32.7018182 16.3927273zM52.6909091 17.9818182C51.2690909 16.3927273 49.8472727 14.8036364 48.5090909 13.2145455 47.0872727 11.5418182 45.7490909 10.0363636 44.4109091 8.44727273 46.3345455 6.18909091 50.3490909 2.50909091 52.44.669090909L52.7745455.418181818 52.3563636.501818182C51.9381818.585454545 51.52.585454545 51.1854545.585454545 50.8509091.585454545 50.5163636.585454545 50.1818182.501818182L50.0981818.501818182 50.0145455.585454545C47.9236364 2.92727273 44.9127273 6.27272727 42.4036364 8.53090909L42.4036364 8.53090909C42.2363636 8.69818182 42.2363636 8.69818182 42.1527273 8.69818182L42.1527273 8.69818182C42.1527273 8.69818182 42.1527273 8.69818182 42.1527273 8.61454545L42.1527273 7.19272727C42.1527273 5.01818182 42.2363636 2.76 42.32.669090909L42.32.501818182 42.1527273.501818182C41.1490909.669090909 40.6472727.669090909 39.7272727.501818182L39.56.501818182 39.56.669090909C39.6436364 2.67636364 39.7272727 5.01818182 39.7272727 7.19272727L39.7272727 11.5418182C39.7272727 13.7163636 39.6436364 16.0581818 39.56 18.0654545L39.56 18.2327273 39.7272727 18.2327273C40.2290909 18.1490909 40.5636364 18.0654545 40.9818182 18.0654545 41.3163636 18.0654545 41.7345455 18.0654545 42.2363636 18.2327273L42.4036364 18.2327273 42.4036364 18.0654545C42.32 15.8909091 42.2363636 13.7163636 42.2363636 11.5418182L42.2363636 9.36727273 42.2363636 9.36727273C42.2363636 9.36727273 42.32 9.45090909 42.4872727 9.53454545 43.6581818 10.7054545 48.0072727 15.9745455 49.7636364 18.2327273L49.7636364 18.3163636 49.8472727 18.3163636C50.3490909 18.2327273 50.7672727 18.1490909 51.1854545 18.1490909 51.6036364 18.1490909 52.1054545 18.1490909 52.6909091 18.3163636L53.0254545 18.4 52.6909091 17.9818182z"/>
    </g>
    <rect width="1.756" height="36.884" x="114.331" y="3.764"/>
    <g transform="translate(126.29 13.382)">
      <path d="M16.56 18.0654545C16.3090909 18.0654545 16.1418182 17.9818182 15.8909091 17.9818182L15.2218182 17.9818182 14.5527273 17.9818182C14.3018182 17.9818182 14.1345455 17.9818182 13.8836364 18.0654545 13.8 17.6472727 13.6327273 17.2290909 13.3818182 16.6436364 13.2145455 16.0581818 12.9636364 15.5563636 12.7127273 14.8872727 12.4618182 14.3018182 12.2109091 13.7163636 11.96 13.0472727 11.7090909 12.4618182 11.4581818 11.8763636 11.2909091 11.2909091L9.61818182 11.2909091 7.94545455 11.2909091 6.44 11.2909091 4.93454545 11.2909091C4.43272727 12.6290909 3.93090909 13.8836364 3.42909091 15.0545455 3.01090909 16.2254545 2.67636364 17.2290909 2.42545455 17.9818182 2.17454545 17.9818182 1.84 17.8981818 1.50545455 17.8981818 1.17090909 17.8981818.836363636 17.8981818.585454545 17.9818182 1.92363636 15.0545455 3.26181818 12.1272727 4.6 9.2 5.93818182 6.27272727 7.19272727 3.34545455 8.53090909.334545455L9.03272727.334545455C9.45090909 1.33818182 9.86909091 2.34181818 10.3709091 3.51272727 10.8727273 4.68363636 11.2909091 5.77090909 11.7927273 6.94181818 12.2945455 8.11272727 12.7963636 9.28363636 13.2981818 10.3709091 13.8 11.5418182 14.2181818 12.5454545 14.6363636 13.5490909 15.0545455 14.5527273 15.4727273 15.3890909 15.8072727 16.2254545 16.0581818 17.0618182 16.3090909 17.6472727 16.56 18.0654545zM5.35272727 10.2036364L6.69090909 10.2036364 8.02909091 10.2036364 9.45090909 10.2036364 10.8727273 10.2036364 8.02909091 3.76363636 5.35272727 10.2036364zM23.1672727 3.93090909C23.1672727 2.84363636 23.0836364 1.75636364 23 .669090909 23.5018182.669090909 24.0036364.752727273 24.4218182.752727273L25.8436364.752727273C26.3454545.752727273 26.8472727.752727273 27.2654545.669090909 27.7672727.669090909 28.1854545.585454545 28.6872727.585454545 29.3563636.585454545 30.1090909.669090909 30.6945455.752727273 31.3636364.92 31.8654545 1.08727273 32.3672727 1.42181818 32.8690909 1.75636364 33.2036364 2.17454545 33.5381818 2.67636364 33.7890909 3.17818182 33.9563636 3.84727273 33.9563636 4.6 33.9563636 5.43636364 33.7890909 6.10545455 33.3709091 6.69090909 32.9527273 7.27636364 32.5345455 7.77818182 32.0327273 8.11272727 31.5309091 8.53090909 30.9454545 8.78181818 30.36 9.03272727 29.7745455 9.28363636 29.1890909 9.36727273 28.6872727 9.45090909 28.8545455 9.70181818 29.1890909 10.0363636 29.5236364 10.5381818 29.8581818 10.9563636 30.2763636 11.4581818 30.6945455 12.0436364 31.1127273 12.6290909 31.6145455 13.1309091 32.0327273 13.8 32.5345455 14.3854545 32.9527273 14.9709091 33.3709091 15.5563636 33.7890909 16.1418182 34.2072727 16.6436364 34.6254545 17.0618182 35.0436364 17.48 35.2945455 17.8981818 35.5454545 18.0654545 35.2945455 18.0654545 35.0436364 17.9818182 34.7927273 17.9818182L34.04 17.9818182 33.2872727 17.9818182C33.0363636 17.9818182 32.7854545 17.9818182 32.5345455 18.0654545 32.2836364 17.7309091 31.8654545 17.1454545 31.3636364 16.4763636 30.8618182 15.8072727 30.2763636 14.9709091 29.6909091 14.2181818 29.1054545 13.3818182 28.4363636 12.6290909 27.7672727 11.7927273 27.0981818 10.9563636 26.5127273 10.2872727 26.0109091 9.78545455L25.0909091 9.78545455 25.0909091 11.6254545C25.0909091 12.7127273 25.0909091 13.8 25.1745455 14.8872727 25.2581818 15.9745455 25.2581818 17.0618182 25.3418182 18.0654545 24.9236364 18.0654545 24.5054545 17.9818182 24.0872727 17.9818182 23.6690909 17.9818182 23.2509091 17.9818182 22.8327273 18.0654545 22.9163636 16.9781818 22.9163636 15.9745455 23 14.8872727 23.0836364 13.8 23.0836364 12.7127273 23.0836364 11.6254545L23.0836364 7.27636364C23.2509091 6.10545455 23.2509091 5.01818182 23.1672727 3.93090909zM26.0945455 8.78181818L27.0145455 8.78181818C27.5163636 8.78181818 28.1018182 8.69818182 28.6872727 8.61454545 29.2727273 8.53090909 29.7745455 8.28 30.2763636 8.02909091 30.7781818 7.69454545 31.1127273 7.36 31.4472727 6.85818182 31.7818182 6.35636364 31.9490909 5.77090909 31.9490909 4.93454545 31.9490909 4.26545455 31.8654545 3.76363636 31.6145455 3.26181818 31.3636364 2.84363636 31.0290909 2.50909091 30.6945455 2.25818182 30.2763636 2.00727273 29.8581818 1.84 29.44 1.75636364 29.0218182 1.67272727 28.52 1.58909091 28.1018182 1.58909091L26.5963636 1.58909091C26.1781818 1.58909091 25.8436364 1.67272727 25.5927273 1.67272727 25.5927273 2.59272727 25.5090909 3.51272727 25.5090909 4.43272727 25.5090909 5.35272727 25.4254545 6.27272727 25.4254545 7.19272727L25.4254545 8.61454545C25.5927273 8.69818182 25.8436364 8.69818182 26.0945455 8.78181818zM54.8654545 17.48C54.5309091 17.6472727 54.1127273 17.8145455 53.6945455 17.8981818 53.1927273 18.0654545 52.6909091 18.1490909 52.1054545 18.2327273 51.52 18.3163636 50.9345455 18.4 50.3490909 18.4 49.0109091 18.4 47.7563636 18.2327273 46.6690909 17.8145455 45.5818182 17.3963636 44.5781818 16.8945455 43.7418182 16.0581818 42.9054545 15.3054545 42.32 14.3018182 41.8181818 13.2145455 41.3163636 12.1272727 41.1490909 10.7890909 41.1490909 9.36727273 41.1490909 7.94545455 41.4 6.69090909 41.8181818 5.52 42.32 4.43272727 42.9054545 3.42909091 43.7418182 2.67636364 44.5781818 1.92363636 45.5818182 1.33818182 46.7527273.92 47.9236364.501818182 49.1781818.334545455 50.6.334545455 51.6872727.334545455 52.6909091.418181818 53.6109091.669090909 54.5309091.92 55.3672727 1.17090909 56.0363636 1.50545455 55.8690909 1.75636364 55.7854545 2.09090909 55.7018182 2.42545455 55.6181818 2.84363636 55.5345455 3.17818182 55.5345455 3.42909091L55.3672727 3.51272727C55.2 3.34545455 54.9490909 3.09454545 54.6981818 2.84363636 54.3636364 2.59272727 54.0290909 2.34181818 53.6109091 2.09090909 53.1927273 1.84 52.7745455 1.67272727 52.2727273 1.50545455 51.7709091 1.33818182 51.1854545 1.25454545 50.6 1.25454545 49.5963636 1.25454545 48.6763636 1.42181818 47.84 1.75636364 47.0036364 2.09090909 46.2509091 2.59272727 45.5818182 3.26181818 44.9127273 3.93090909 44.4945455 4.76727273 44.0763636 5.77090909 43.7418182 6.77454545 43.5745455 8.02909091 43.5745455 9.36727273 43.5745455 10.7890909 43.7418182 11.96 44.0763636 12.9636364 44.4109091 13.9672727 44.9127273 14.8036364 45.5818182 15.4727273 46.2509091 16.1418182 46.92 16.6436364 47.84 16.9781818 48.6763636 17.3127273 49.5963636 17.48 50.6 17.48 51.1854545 17.48 51.7709091 17.3963636 52.2727273 17.2290909 52.7745455 17.0618182 53.2763636 16.8945455 53.6945455 16.7272727 54.1127273 16.4763636 54.5309091 16.3090909 54.8654545 16.0581818 55.2 15.8072727 55.5345455 15.64 55.7018182 15.3890909L55.7854545 15.4727273 55.5345455 16.9781818C55.4509091 17.1454545 55.2 17.3127273 54.8654545 17.48zM75.7745455 3.93090909C75.6909091 2.84363636 75.6909091 1.75636364 75.6072727.669090909 75.8581818.669090909 76.0254545.752727273 76.2763636.752727273L76.8618182.752727273 77.4472727.752727273C77.6145455.752727273 77.8654545.669090909 78.1163636.669090909 78.0327273 1.75636364 78.0327273 2.84363636 77.9490909 3.93090909 77.9490909 5.01818182 77.8654545 6.10545455 77.8654545 7.19272727L77.8654545 11.5418182C77.8654545 12.6290909 77.8654545 13.7163636 77.9490909 14.8036364 78.0327273 15.8909091 78.0327273 16.9781818 78.1163636 17.9818182 77.6981818 17.9818182 77.28 17.8981818 76.8618182 17.8981818 76.4436364 17.8981818 76.0254545 17.8981818 75.6072727 17.9818182 75.6909091 16.8945455 75.6909091 15.8909091 75.7745455 14.8036364 75.8581818 13.7163636 75.8581818 12.6290909 75.8581818 11.5418182L75.8581818 9.28363636 73.1818182 9.28363636 70.5054545 9.28363636 67.8290909 9.28363636 65.1527273 9.28363636 65.1527273 11.5418182C65.1527273 12.6290909 65.1527273 13.7163636 65.2363636 14.8036364 65.32 15.8909091 65.32 16.9781818 65.4036364 17.9818182 64.9854545 17.9818182 64.5672727 17.8981818 64.1490909 17.8981818 63.7309091 17.8981818 63.3127273 17.8981818 62.8945455 17.9818182 62.9781818 16.8945455 62.9781818 15.8909091 63.0618182 14.8036364 63.1454545 13.7163636 63.1454545 12.6290909 63.1454545 11.5418182L63.1454545 7.19272727C63.1454545 6.10545455 63.1454545 5.01818182 63.0618182 3.93090909 63.0618182 2.84363636 62.9781818 1.75636364 62.8945455.669090909 63.1454545.669090909 63.3127273.752727273 63.5636364.752727273L64.1490909.752727273 64.7345455.752727273C64.9018182.752727273 65.1527273.669090909 65.4036364.669090909 65.32 1.75636364 65.32 2.84363636 65.2363636 3.93090909 65.2363636 5.01818182 65.1527273 6.10545455 65.1527273 7.19272727L65.1527273 8.11272727C66.0727273 8.11272727 66.9090909 8.11272727 67.8290909 8.19636364L70.5054545 8.19636364 73.1818182 8.19636364C74.0181818 8.19636364 74.9381818 8.19636364 75.8581818 8.11272727L75.8581818 7.19272727C75.8581818 6.10545455 75.8581818 5.01818182 75.7745455 3.93090909zM86.6472727 3.93090909C86.6472727 2.84363636 86.5636364 1.75636364 86.48.669090909 86.7309091.669090909 86.8981818.752727273 87.1490909.752727273L87.7345455.752727273 88.32.752727273C88.4872727.752727273 88.7381818.669090909 88.9890909.669090909 88.9054545 1.75636364 88.9054545 2.84363636 88.8218182 3.93090909 88.8218182 5.01818182 88.7381818 6.10545455 88.7381818 7.19272727L88.7381818 11.5418182C88.7381818 12.6290909 88.7381818 13.7163636 88.8218182 14.8036364 88.9054545 15.8909091 88.9054545 16.9781818 88.9890909 17.9818182 88.5709091 17.9818182 88.1527273 17.8981818 87.7345455 17.8981818 87.3163636 17.8981818 86.8981818 17.8981818 86.48 17.9818182 86.5636364 16.8945455 86.5636364 15.8909091 86.6472727 14.8036364 86.7309091 13.7163636 86.7309091 12.6290909 86.7309091 11.5418182L86.7309091 7.19272727C86.6472727 6.10545455 86.6472727 5.01818182 86.6472727 3.93090909zM100.949091 2.00727273L99.6109091 2.00727273C99.1090909 2.00727273 98.6072727 2.00727273 98.1890909 2.09090909 97.6872727 2.09090909 97.2690909 2.17454545 96.7672727 2.17454545 96.3490909 2.17454545 95.9309091 2.25818182 95.5963636 2.34181818 95.68 2.00727273 95.7636364 1.75636364 95.7636364 1.50545455 95.7636364 1.33818182 95.7636364 1.08727273 95.5963636.752727273 96.6836364.752727273 97.7709091.836363636 98.8581818.836363636L102.12.836363636 105.381818.836363636C106.469091.836363636 107.556364.752727273 108.643636.752727273 108.56 1.08727273 108.476364 1.33818182 108.476364 1.58909091 108.476364 1.84 108.56 2.09090909 108.643636 2.34181818 108.309091 2.25818182 107.890909 2.25818182 107.472727 2.17454545 107.054545 2.17454545 106.552727 2.09090909 106.050909 2.09090909 105.549091 2.09090909 105.130909 2.00727273 104.629091 2.00727273L103.290909 2.00727273C103.207273 3.76363636 103.207273 5.52 103.207273 7.27636364L103.207273 11.6254545C103.207273 12.7127273 103.207273 13.8 103.290909 14.8872727 103.374545 15.9745455 103.374545 17.0618182 103.458182 18.0654545 103.04 18.0654545 102.621818 17.9818182 102.203636 17.9818182 101.785455 17.9818182 101.367273 17.9818182 100.949091 18.0654545 101.032727 16.9781818 101.032727 15.9745455 101.116364 14.8872727 101.2 13.8 101.2 12.7127273 101.2 11.6254545L101.2 7.27636364C101.032727 5.43636364 101.032727 3.76363636 100.949091 2.00727273zM115.334545 3.93090909C115.334545 2.84363636 115.250909 1.75636364 115.167273.669090909 115.92.669090909 116.672727.752727273 117.425455.752727273L119.683636.752727273 121.941818.752727273C122.694545.752727273 123.447273.669090909 124.2.669090909 124.116364.92 124.116364 1.17090909 124.116364 1.42181818 124.116364 1.67272727 124.116364 1.92363636 124.2 2.17454545 123.698182 2.17454545 123.196364 2.09090909 122.694545 2.09090909 122.276364 2.09090909 121.774545 2.00727273 121.272727 2.00727273 120.770909 2.00727273 120.269091 1.92363636 119.6 1.92363636L117.509091 1.92363636C117.509091 2.42545455 117.509091 3.01090909 117.425455 3.42909091 117.341818 3.84727273 117.425455 4.51636364 117.425455 5.10181818L117.425455 7.02545455 117.425455 8.44727273 119.432727 8.44727273C120.018182 8.44727273 120.603636 8.44727273 121.021818 8.36363636 121.44 8.28 121.941818 8.28 122.36 8.28 122.778182 8.28 123.196364 8.19636364 123.530909 8.19636364 123.447273 8.44727273 123.447273 8.69818182 123.447273 8.94909091 123.447273 9.2 123.447273 9.45090909 123.530909 9.70181818 123.112727 9.61818182 122.610909 9.61818182 122.025455 9.53454545 121.44 9.53454545 120.854545 9.45090909 120.269091 9.45090909L118.596364 9.45090909 117.341818 9.45090909 117.341818 9.95272727 117.341818 10.6218182 117.341818 11.6254545 117.341818 13.1309091 117.341818 15.4727273 117.341818 16.8945455 119.098182 16.8945455 121.021818 16.8945455C121.690909 16.8945455 122.192727 16.8109091 122.778182 16.8109091 123.363636 16.7272727 123.781818 16.7272727 124.2 16.6436364 124.2 16.7272727 124.116364 16.8945455 124.116364 17.0618182L124.116364 17.48C124.116364 17.7309091 124.116364 17.9818182 124.2 18.1490909 123.447273 18.1490909 122.694545 18.0654545 121.941818 18.0654545L119.683636 18.0654545 117.341818 18.0654545C116.505455 18.0654545 115.836364 18.0654545 115 18.1490909 115.083636 17.0618182 115.083636 15.9745455 115.167273 14.8872727 115.250909 13.8 115.250909 12.7127273 115.250909 11.6254545L115.250909 7.27636364C115.334545 6.10545455 115.334545 5.01818182 115.334545 3.93090909zM144.189091 17.48C143.854545 17.6472727 143.436364 17.8145455 143.018182 17.8981818 142.516364 18.0654545 142.014545 18.1490909 141.429091 18.2327273 140.843636 18.3163636 140.258182 18.4 139.672727 18.4 138.334545 18.4 137.08 18.2327273 135.992727 17.8145455 134.905455 17.3963636 133.901818 16.8945455 133.065455 16.0581818 132.229091 15.3054545 131.643636 14.3018182 131.141818 13.2145455 130.64 12.1272727 130.472727 10.7890909 130.472727 9.36727273 130.472727 7.94545455 130.723636 6.69090909 131.141818 5.52 131.643636 4.43272727 132.229091 3.42909091 133.065455 2.67636364 133.901818 1.92363636 134.905455 1.33818182 136.076364.92 137.247273.501818182 138.501818.334545455 139.923636.334545455 141.010909.334545455 142.014545.418181818 142.934545.669090909 143.854545.92 144.690909 1.17090909 145.36 1.50545455 145.192727 1.75636364 145.109091 2.09090909 145.025455 2.42545455 144.941818 2.84363636 144.858182 3.17818182 144.858182 3.42909091L144.690909 3.51272727C144.523636 3.34545455 144.272727 3.09454545 144.021818 2.84363636 143.687273 2.59272727 143.352727 2.34181818 142.934545 2.09090909 142.516364 1.84 142.098182 1.67272727 141.596364 1.50545455 141.094545 1.33818182 140.509091 1.25454545 139.923636 1.25454545 138.92 1.25454545 138 1.42181818 137.163636 1.75636364 136.327273 2.09090909 135.574545 2.59272727 134.905455 3.26181818 134.236364 3.93090909 133.818182 4.76727273 133.4 5.77090909 133.065455 6.77454545 132.898182 8.02909091 132.898182 9.36727273 132.898182 10.7890909 133.065455 11.96 133.4 12.9636364 133.734545 13.9672727 134.236364 14.8036364 134.905455 15.4727273 135.574545 16.1418182 136.243636 16.6436364 137.163636 16.9781818 138 17.3127273 138.92 17.48 139.923636 17.48 140.509091 17.48 141.094545 17.3963636 141.596364 17.2290909 142.098182 17.0618182 142.6 16.8945455 143.018182 16.7272727 143.436364 16.4763636 143.854545 16.3090909 144.189091 16.0581818 144.523636 15.8072727 144.858182 15.64 145.025455 15.3890909L145.109091 15.4727273 144.858182 16.9781818C144.774545 17.1454545 144.523636 17.3127273 144.189091 17.48zM155.898182 2.00727273L154.56 2.00727273C154.058182 2.00727273 153.556364 2.00727273 153.138182 2.09090909 152.636364 2.09090909 152.218182 2.17454545 151.716364 2.17454545 151.298182 2.17454545 150.88 2.25818182 150.545455 2.34181818 150.629091 2.00727273 150.712727 1.75636364 150.712727 1.50545455 150.712727 1.33818182 150.712727 1.08727273 150.545455.752727273 151.632727.752727273 152.72.836363636 153.807273.836363636L157.069091.836363636 160.330909.836363636C161.418182.836363636 162.505455.752727273 163.592727.752727273 163.509091 1.08727273 163.425455 1.33818182 163.425455 1.58909091 163.425455 1.84 163.509091 2.09090909 163.592727 2.34181818 163.258182 2.25818182 162.84 2.25818182 162.421818 2.17454545 162.003636 2.17454545 161.501818 2.09090909 161 2.09090909 160.498182 2.09090909 160.08 2.00727273 159.578182 2.00727273L158.24 2.00727273C158.156364 3.76363636 158.156364 5.52 158.156364 7.27636364L158.156364 11.6254545C158.156364 12.7127273 158.156364 13.8 158.24 14.8872727 158.323636 15.9745455 158.323636 17.0618182 158.407273 18.0654545 157.989091 18.0654545 157.570909 17.9818182 157.152727 17.9818182 156.734545 17.9818182 156.316364 17.9818182 155.898182 18.0654545 155.981818 16.9781818 155.981818 15.9745455 156.065455 14.8872727 156.149091 13.8 156.149091 12.7127273 156.149091 11.6254545L156.149091 7.27636364C155.981818 5.52 155.981818 3.76363636 155.898182 2.00727273zM170.367273 15.7236364C170.618182 16.0581818 170.869091 16.3090909 171.203636 16.56 171.538182 16.8109091 171.956364 16.9781818 172.374545 17.1454545 172.792727 17.3127273 173.294545 17.3963636 173.88 17.3963636 174.465455 17.3963636 174.967273 17.3127273 175.385455 17.1454545 175.803636 16.9781818 176.221818 16.7272727 176.556364 16.3927273 176.890909 16.0581818 177.141818 15.64 177.309091 15.2218182 177.476364 14.8036364 177.56 14.3018182 177.56 13.8 177.56 13.0472727 177.392727 12.3781818 176.974545 11.96 176.556364 11.5418182 176.054545 11.1236364 175.469091 10.7890909 174.883636 10.4545455 174.214545 10.2036364 173.545455 9.95272727 172.876364 9.70181818 172.207273 9.36727273 171.621818 9.03272727 171.036364 8.61454545 170.534545 8.19636364 170.116364 7.61090909 169.698182 7.02545455 169.530909 6.18909091 169.530909 5.26909091 169.530909 4.6 169.698182 3.93090909 169.949091 3.34545455 170.2 2.76 170.534545 2.25818182 171.036364 1.84 171.538182 1.42181818 172.123636 1.08727273 172.792727.836363636 173.461818.585454545 174.214545.501818182 175.050909.501818182 175.887273.501818182 176.556364.585454545 177.141818.752727273 177.727273.92 178.312727 1.25454545 178.814545 1.67272727 178.647273 1.92363636 178.563636 2.25818182 178.396364 2.59272727 178.312727 2.92727273 178.229091 3.34545455 178.061818 3.84727273L177.727273 3.84727273C177.643636 3.59636364 177.56 3.34545455 177.392727 3.09454545 177.225455 2.84363636 177.058182 2.59272727 176.807273 2.34181818 176.556364 2.09090909 176.305455 1.92363636 175.970909 1.75636364 175.636364 1.58909091 175.218182 1.50545455 174.716364 1.50545455 174.214545 1.50545455 173.796364 1.58909091 173.378182 1.75636364 172.96 1.92363636 172.625455 2.09090909 172.374545 2.42545455 172.04 2.67636364 171.872727 3.01090909 171.705455 3.42909091 171.538182 3.84727273 171.454545 4.26545455 171.454545 4.68363636 171.454545 5.43636364 171.621818 6.10545455 172.04 6.52363636 172.458182 6.94181818 172.96 7.36 173.545455 7.69454545 174.130909 8.02909091 174.8 8.28 175.469091 8.53090909 176.138182 8.78181818 176.807273 9.11636364 177.392727 9.45090909 177.978182 9.78545455 178.48 10.2872727 178.898182 10.7890909 179.316364 11.3745455 179.483636 12.1272727 179.483636 13.0472727 179.483636 13.8 179.316364 14.5527273 179.065455 15.2218182 178.814545 15.8909091 178.396364 16.4763636 177.810909 17.0618182 177.309091 17.5636364 176.64 17.9818182 175.887273 18.2327273 175.134545 18.4836364 174.214545 18.6509091 173.294545 18.6509091 172.290909 18.6509091 171.370909 18.4836364 170.785455 18.2327273 170.2 17.9818182 169.614545 17.6472727 169.112727 17.3127273 169.28 16.8945455 169.363636 16.56 169.447273 16.2254545 169.530909 15.8909091 169.530909 15.4727273 169.614545 15.0545455L169.949091 15.0545455C169.949091 15.0545455 170.116364 15.3890909 170.367273 15.7236364z"/>
    </g>
  </g>
<script xmlns=""/></svg>