<?xml version="1.0" standalone="no"?>
<!DOCTYPE svg PUBLIC "-//W3C//DTD SVG 20010904//EN"
 "http://www.w3.org/TR/2001/REC-SVG-20010904/DTD/svg10.dtd">
<svg version="1.0" xmlns="http://www.w3.org/2000/svg"
 width="1920.000000pt" height="1920.000000pt" viewBox="0 0 1920.000000 1920.000000"
 preserveAspectRatio="xMidYMid meet">
<metadata>
Created by potrace 1.14, written by Peter Selinger 2001-2017
</metadata>
<g transform="translate(0.000000,1920.000000) scale(0.100000,-0.100000)"
fill="#000000" stroke="none">
<path d="M0 9600 l0 -9600 2838 0 c1560 0 2831 4 2824 8 -10 7 -10 14 3 38 8
16 15 42 15 57 0 27 2 28 38 21 63 -11 66 -20 26 -75 l-36 -49 396 0 396 0 5
23 c3 12 14 87 24 167 11 80 32 231 46 335 15 105 27 200 28 211 2 17 -19 37
-88 86 l-90 64 2 60 c2 32 5 84 8 115 l6 55 -61 28 c-34 16 -63 27 -65 24 -2
-2 -28 -53 -58 -113 -53 -105 -97 -228 -112 -308 -4 -20 -9 -37 -11 -37 -3 0
-49 23 -104 50 l-100 50 0 44 c0 24 11 83 25 131 14 48 24 89 23 90 -2 2 -50
-17 -108 -41 -58 -24 -117 -43 -133 -44 -15 0 -45 13 -67 29 l-40 29 26 31
c15 18 63 49 110 71 108 52 188 127 259 240 76 123 97 179 171 448 36 130 66
238 68 239 1 1 37 -21 79 -50 70 -48 76 -55 77 -87 0 -19 -7 -59 -14 -87 -8
-29 -13 -53 -11 -53 2 0 18 23 35 51 24 36 38 49 51 46 15 -4 18 4 23 52 10
90 109 1436 141 1906 8 127 22 325 30 440 51 746 62 1421 35 2175 -5 153 -5
249 1 256 5 7 18 14 28 17 16 4 18 -3 20 -57 2 -33 4 -74 7 -91 2 -16 6 -155
9 -307 7 -356 11 -413 42 -553 13 -63 40 -145 64 -200 5 -11 18 -46 29 -78 12
-31 27 -63 34 -70 13 -13 31 -45 64 -113 11 -23 25 -45 31 -48 6 -4 11 -16 11
-27 0 -10 4 -19 9 -19 5 0 15 -12 23 -28 7 -15 25 -45 38 -67 14 -21 25 -45
26 -51 3 -16 37 -63 47 -64 4 0 7 -6 7 -13 0 -30 106 -181 121 -171 5 3 9 1 9
-3 0 -5 15 -8 33 -8 17 0 40 -3 50 -8 12 -5 17 -3 17 8 0 8 4 14 9 12 10 -2
51 41 51 55 0 5 5 6 12 2 6 -4 8 -3 4 4 -3 6 -2 13 4 17 5 3 10 19 10 34 0 15
5 32 12 39 7 7 8 12 2 12 -5 0 -4 4 1 8 17 11 61 77 46 68 -10 -6 -10 -4 1 13
7 11 20 20 28 18 9 -1 14 4 12 13 -2 8 0 11 4 7 4 -4 10 -15 12 -25 2 -9 6
-28 9 -42 3 -14 8 -223 10 -465 2 -242 4 -463 5 -492 l2 -52 70 -3 71 -3 8
-50 c4 -27 5 -124 2 -215 -3 -91 -8 -250 -10 -355 -6 -226 1 -206 -179 -493
l-114 -182 41 -28 c23 -16 84 -54 135 -86 69 -43 90 -61 83 -70 -10 -12 -16
-79 -26 -301 -2 -60 -7 -135 -10 -165 -7 -84 -17 -292 -20 -420 -1 -63 -5
-149 -8 -190 -4 -41 -9 -129 -13 -195 -3 -66 -8 -138 -9 -160 -1 -22 -5 -89
-9 -150 -3 -60 -8 -135 -11 -165 -3 -30 -7 -89 -10 -130 -3 -41 -9 -93 -12
-115 -4 -22 -7 -47 -8 -55 -1 -8 -4 -28 -8 -45 -8 -33 -16 -67 -24 -105 -3
-14 -18 -43 -33 -65 -27 -40 -30 -46 -30 -65 0 -5 -22 -10 -48 -10 -39 0 -58
6 -90 30 l-42 30 0 113 0 112 -33 22 c-17 11 -66 45 -107 73 -70 49 -72 49
-29 11 26 -22 49 -52 51 -65 l5 -25 -76 5 c-42 3 -82 7 -88 9 -15 5 -14 12
-56 -250 -19 -116 -38 -218 -42 -227 -7 -17 288 -18 6104 -18 l6111 0 0 9600
0 9600 -9600 0 -9600 0 0 -9600z m13844 6540 c374 -66 681 -121 682 -123 1 -1
-20 -391 -46 -867 -27 -476 -59 -1031 -70 -1235 -12 -203 -23 -375 -24 -381
-3 -7 -57 -4 -173 12 -92 12 -170 23 -171 23 -2 1 -1 52 3 115 l7 113 -43 6
c-404 57 -765 106 -1074 147 -209 28 -397 53 -417 57 -57 9 -85 -2 -93 -36 -3
-16 -15 -37 -27 -47 -23 -22 -58 -86 -58 -109 0 -11 -11 -15 -48 -15 -27 0
-51 2 -53 4 -5 5 3 183 26 585 8 151 14 275 12 277 -1 1 -335 50 -742 108
-407 59 -751 109 -764 112 l-24 5 7 137 c18 397 39 738 45 743 3 4 85 -6 181
-22 96 -16 258 -42 360 -58 102 -16 327 -53 500 -81 173 -28 401 -64 505 -80
105 -15 306 -47 448 -70 142 -23 261 -40 263 -37 2 2 14 184 25 403 11 219 22
409 25 422 4 20 9 22 32 18 15 -4 333 -60 706 -126z m-4236 -170 c205 -33 376
-61 380 -64 11 -7 -74 -1525 -86 -1538 -4 -4 -32 -3 -62 1 -30 5 -111 16 -180
26 -69 9 -154 23 -190 31 -36 8 -81 14 -100 14 -19 0 -53 5 -74 11 -39 11 -69
15 -136 18 -59 2 -63 9 -61 107 2 153 58 1353 67 1422 5 42 6 43 37 37 18 -3
200 -32 405 -65z m-1643 -466 c-14 -258 -35 -653 -46 -879 -14 -263 -26 -414
-33 -421 -13 -14 -287 -116 -294 -110 -2 3 6 194 18 426 12 232 20 423 17 426
-2 3 -67 -24 -143 -59 l-139 -63 -22 -412 c-11 -226 -23 -416 -25 -423 -2 -6
-62 -33 -133 -58 l-130 -48 -3 51 c-1 28 6 209 17 401 10 193 17 352 15 354
-4 5 -45 -12 -161 -65 l-93 -43 -1 -58 c-1 -150 -37 -725 -46 -734 -13 -13
-453 -172 -459 -166 -3 3 3 168 14 368 10 200 17 366 15 368 -2 2 -49 -16
-105 -42 -57 -25 -104 -44 -106 -42 -6 6 31 700 39 720 6 18 205 133 214 123
4 -4 -19 -498 -30 -660 l-6 -87 233 106 c128 59 234 107 235 108 1 0 11 176
23 390 11 215 22 395 24 401 4 11 63 45 270 154 55 29 145 77 200 108 430 236
661 358 664 348 1 -7 -9 -223 -23 -482z m1934 -2265 c11 -18 11 -23 -1 -30
-23 -15 -38 -10 -38 14 0 41 18 48 39 16z m71 -59 c96 -11 193 -21 215 -24 22
-2 0 -3 -50 -1 -123 4 -386 34 -405 46 -11 7 -3 9 25 5 22 -4 119 -15 215 -26z
m-200 -29 c38 -5 73 -11 77 -14 5 -3 34 -7 64 -8 61 -2 149 -35 149 -55 0 -8
5 -14 10 -14 6 0 10 -10 10 -22 0 -12 5 -48 12 -79 11 -53 15 -59 49 -75 29
-12 51 -15 93 -10 51 7 56 6 71 -18 15 -23 16 -49 6 -288 -33 -776 -33 -775
-81 -852 l-21 -35 28 -6 c53 -12 56 -14 44 -29 -7 -8 -26 -20 -44 -27 -18 -7
-45 -22 -62 -33 -81 -56 -92 -59 -215 -53 -110 6 -484 36 -715 57 -60 5 -149
13 -197 16 -47 4 -91 9 -96 13 -11 7 -7 134 23 686 35 646 40 706 60 699 7 -3
16 -1 20 5 15 25 35 11 35 -24 l0 -35 31 19 c17 10 37 28 45 40 39 56 122 72
287 57 l99 -9 -6 -66 c-15 -161 -50 -933 -45 -971 3 -14 21 187 42 445 42 526
50 588 75 642 25 54 34 63 60 58 13 -3 54 -10 92 -14z m-3515 -493 c-3 -79
-10 -210 -15 -293 l-9 -150 45 -45 c39 -38 43 -46 29 -56 -8 -6 -15 -16 -15
-21 0 -17 -229 -284 -396 -462 -171 -183 -352 -394 -348 -406 6 -14 308 -266
644 -535 187 -150 312 -253 339 -280 16 -17 33 -30 37 -30 15 0 44 -34 44 -52
0 -21 22 -48 39 -48 5 0 26 -15 45 -34 20 -18 38 -31 41 -30 3 2 3 1 0 -3 -3
-3 1 -13 8 -22 30 -34 27 -50 -16 -95 -41 -43 -67 -58 -327 -194 -69 -35 -129
-68 -135 -72 -5 -5 -46 -27 -90 -50 -44 -23 -98 -52 -120 -65 -22 -12 -103
-55 -180 -95 -77 -40 -144 -76 -150 -80 -13 -10 -104 -59 -270 -145 -71 -37
-134 -70 -140 -75 -5 -4 -95 -51 -200 -105 -234 -120 -276 -145 -270 -155 3
-4 -4 -6 -15 -3 -15 4 -20 0 -20 -16 0 -15 -5 -21 -17 -19 -10 2 -17 -3 -16
-9 2 -7 -1 -13 -6 -13 -5 0 -12 6 -14 13 -4 8 -8 9 -14 1 -4 -6 -23 -19 -42
-29 -33 -16 -45 -25 -76 -52 -7 -7 -18 -13 -23 -13 -5 0 -21 -9 -36 -21 -14
-11 -26 -17 -26 -12 0 4 -7 -1 -15 -11 -8 -11 -15 -16 -15 -12 0 4 -7 0 -17
-9 -22 -23 -86 -63 -161 -101 -34 -18 -68 -39 -76 -46 -8 -7 -36 -29 -63 -48
-50 -35 -92 -86 -127 -150 -10 -19 -23 -38 -27 -41 -16 -10 -9 -189 9 -247 6
-18 11 -36 12 -40 3 -28 24 -90 34 -102 21 -26 43 -84 40 -104 -1 -11 4 -29
12 -40 8 -11 14 -27 14 -36 0 -20 119 -264 131 -268 5 -2 9 -10 9 -19 0 -8 7
-21 15 -30 8 -8 13 -19 10 -24 -4 -5 -2 -9 3 -9 6 0 13 -15 16 -32 4 -18 44
-105 90 -193 63 -123 87 -160 101 -158 22 2 51 -33 59 -70 7 -35 84 -200 98
-208 5 -3 9 -9 9 -13 -1 -3 6 -20 14 -36 9 -17 12 -30 9 -30 -4 0 0 -8 9 -18
10 -10 14 -22 11 -25 -4 -4 -1 -13 5 -21 7 -8 10 -19 8 -24 -9 -13 27 -84 61
-122 18 -19 32 -41 32 -47 0 -7 5 -13 11 -13 6 0 8 -9 4 -20 -4 -12 -2 -20 5
-20 6 0 8 -5 5 -11 -4 -5 4 -27 17 -47 12 -20 34 -60 47 -87 48 -99 54 -110
68 -122 9 -7 10 -13 4 -17 -14 -9 -2 -36 16 -36 8 0 12 -4 8 -9 -3 -5 -1 -12
4 -16 6 -3 8 -11 5 -18 -2 -7 7 -30 21 -51 14 -20 20 -34 13 -31 -7 4 -3 -2 9
-12 11 -10 24 -34 28 -53 4 -19 14 -51 22 -70 23 -57 67 -118 -526 730 -140
201 -336 482 -436 625 -100 143 -242 346 -315 450 -141 201 -143 205 -630
1160 -89 176 -195 383 -235 460 -40 77 -157 307 -260 510 -103 204 -192 374
-196 379 -20 22 -4 47 84 132 297 288 1403 1358 1819 1761 393 381 494 473
520 478 18 3 121 19 228 35 107 16 254 38 325 49 280 43 651 100 675 104 14 2
36 5 49 6 l23 1 -7 -142z m6790 -214 c94 -16 125 -36 171 -109 16 -24 19 -50
20 -160 1 -71 -2 -177 -7 -235 -4 -58 -11 -196 -15 -307 -6 -170 -5 -203 7
-208 27 -9 88 -12 101 -4 21 13 37 -28 27 -70 -4 -20 -10 -48 -14 -63 -5 -27
-8 -28 -63 -28 -31 0 -248 16 -482 35 -234 19 -433 35 -444 35 -18 0 -18 7
-12 128 22 419 60 929 67 897 4 -16 7 -23 8 -14 1 14 7 16 37 9 36 -8 49 -16
49 -29 0 -4 11 -23 24 -42 29 -42 66 -62 92 -49 31 17 56 11 95 -25 45 -40 76
-45 91 -12 11 22 11 22 23 -8 l13 -30 7 25 c4 14 10 72 14 130 11 162 6 154
90 146 39 -3 85 -9 101 -12z m-1895 -22 c0 -5 14 -7 30 -6 17 1 33 -2 36 -7 3
-5 16 -9 30 -9 37 0 100 -36 127 -72 43 -56 56 -117 59 -255 3 -141 0 -196
-13 -293 -13 -96 -18 -139 -24 -200 -3 -30 -8 -73 -11 -95 -3 -22 -7 -85 -9
-140 -2 -55 -7 -131 -11 -170 -11 -93 -9 -148 7 -187 21 -54 77 -115 129 -142
43 -22 67 -30 152 -51 38 -9 73 -31 83 -52 5 -12 18 -27 30 -33 35 -18 -390
-1 -855 36 -218 17 -527 57 -578 75 l-33 11 20 22 c12 13 18 25 14 29 -3 4 8
10 26 13 23 5 29 9 19 15 -7 5 29 9 88 9 116 0 114 -2 114 96 0 39 6 60 27 90
15 21 42 61 60 88 40 59 66 143 61 201 -3 41 -2 43 27 48 16 2 67 1 113 -2 46
-4 101 -5 122 -3 39 4 39 4 44 55 3 29 10 144 16 257 16 303 29 536 36 613 6
66 6 67 35 67 16 0 29 -4 29 -8z m1043 -1088 l48 -6 -7 -97 c-3 -53 -9 -112
-13 -132 -6 -34 -8 -36 -31 -26 -14 5 -36 12 -49 14 -71 12 -140 80 -141 138
0 11 -11 44 -25 73 l-24 52 97 -5 c53 -3 119 -8 145 -11z m-1703 -568 c323
-43 706 -75 1123 -95 98 -4 180 -11 183 -14 3 -3 -3 -18 -12 -33 -28 -43 -38
-235 -15 -284 35 -74 64 -108 122 -147 48 -32 3 -28 534 -38 426 -8 747 -9
775 -2 68 16 190 57 229 78 24 13 58 41 75 61 44 51 108 171 142 265 42 119
36 114 159 123 79 5 80 5 86 35 4 17 7 24 8 17 0 -7 5 -11 10 -8 4 3 15 -2 23
-12 13 -15 13 -54 1 -312 -8 -162 -11 -296 -6 -298 4 -1 188 -72 408 -156
l400 -153 498 -684 c274 -376 542 -744 595 -818 l96 -134 -23 -18 c-34 -28
-124 -24 -256 10 -118 31 -408 127 -596 196 -64 24 -152 53 -195 65 -117 33
-244 76 -305 103 -30 14 -94 37 -144 52 -51 16 -99 37 -111 50 -24 24 -84 51
-270 119 -148 54 -181 74 -208 123 -19 33 -27 38 -57 38 -40 1 -46 5 -106 87
-42 55 -43 60 -43 132 0 69 1 74 20 69 19 -5 20 -2 14 53 -9 89 -3 84 -106 85
-109 1 -137 7 -152 34 -6 11 -50 79 -98 151 -47 72 -88 142 -90 155 -3 23 -1
24 62 24 36 0 166 -3 290 -7 l225 -7 -250 19 c-368 26 -540 39 -735 55 -96 8
-271 19 -389 25 -118 6 -222 15 -230 19 -16 8 -65 12 -206 17 -566 20 -758 29
-830 39 -22 3 -150 10 -285 15 -135 5 -263 14 -286 20 -39 9 -129 16 -324 25
-120 6 -199 16 -206 26 -3 5 -23 9 -44 9 -42 0 -83 14 -114 39 -17 14 -18 14
-11 1 6 -10 1 -9 -13 3 -11 11 -25 16 -30 13 -5 -3 -21 3 -35 14 -14 11 -32
20 -40 20 -8 0 -21 8 -28 17 -12 15 -12 16 3 10 10 -3 20 -2 23 3 4 6 2 10 -3
10 -5 0 -9 7 -9 15 0 8 5 15 10 15 5 0 7 7 3 15 -3 8 -2 14 2 13 14 -3 42 14
36 23 -3 5 -2 9 3 9 4 0 19 10 33 21 14 11 18 18 10 14 -8 -3 -6 0 4 7 11 7
35 28 53 46 19 17 38 32 44 32 6 0 8 4 5 9 -3 5 11 21 32 37 54 41 129 119
159 167 14 23 37 55 50 71 32 39 103 180 103 206 0 25 -13 25 210 -4z m-2343
-802 c-3 -3 -12 -4 -19 -1 -8 3 -5 6 6 6 11 1 17 -2 13 -5z m4913 -539 c0 -69
-3 -87 -16 -92 -28 -10 -35 10 -23 71 11 63 25 106 34 106 3 0 5 -38 5 -85z
m-3125 -2135 c-5 8 -2 9 11 1 28 -14 58 -24 68 -22 4 1 14 -4 22 -10 8 -6 14
-8 14 -5 0 4 7 0 16 -8 8 -9 20 -14 25 -10 6 3 16 1 24 -6 7 -6 24 -12 37 -14
28 -3 99 -26 113 -36 10 -7 77 -24 105 -25 37 -3 90 -17 90 -24 0 -5 10 -12
23 -16 12 -4 24 -8 27 -9 3 -2 17 -6 33 -10 15 -5 27 -11 27 -15 0 -6 31 -12
78 -14 12 -1 22 -4 22 -8 0 -3 11 -4 25 -1 15 2 25 0 25 -7 0 -7 5 -9 11 -5 6
3 15 1 19 -6 4 -6 27 -13 51 -14 34 -2 47 -8 55 -24 6 -12 14 -19 17 -15 4 3
7 1 7 -5 0 -6 7 -9 15 -6 9 4 15 0 15 -8 0 -8 13 -27 29 -44 43 -45 91 -219
91 -335 l0 -49 -265 0 -264 0 -5 33 c-5 31 -38 302 -54 437 l-7 65 -286 -4
-285 -4 13 109 c7 60 14 115 15 122 1 9 8 8 26 -4 13 -9 21 -11 17 -4z m-7652
-1735 c31 -25 57 -49 57 -53 0 -4 -47 -36 -103 -72 -196 -123 -587 -383 -586
-389 0 -7 404 -324 418 -329 5 -2 141 87 302 196 322 218 390 262 408 262 7 0
22 -9 34 -21 12 -12 76 -64 142 -117 117 -94 119 -96 89 -102 -43 -9 -89 -38
-392 -248 -475 -329 -507 -362 -458 -464 30 -61 125 -188 142 -188 7 0 42 27
78 60 40 38 67 57 71 50 11 -17 38 12 117 129 86 126 157 215 338 421 74 85
144 168 156 183 l20 29 84 -74 c47 -40 93 -79 102 -86 15 -12 22 -9 58 25 44
40 69 57 75 51 5 -4 -130 -163 -226 -266 -99 -107 -201 -236 -322 -409 -121
-175 -193 -266 -280 -360 l-62 -66 63 -58 c35 -32 61 -63 57 -69 -3 -5 1 -13
10 -16 8 -4 21 -16 27 -28 10 -19 10 -20 -5 -7 -10 8 -17 9 -17 3 0 -6 5 -14
10 -17 6 -3 10 -14 10 -23 0 -15 -2 -15 -11 -2 -9 13 -10 13 -6 0 2 -8 11 -14
21 -12 9 2 16 -2 16 -8 0 -5 -4 -10 -9 -10 -18 0 -4 -32 24 -56 15 -13 23 -24
16 -24 -7 0 -3 -9 8 -21 11 -12 24 -18 30 -14 7 4 10 1 9 -7 -2 -7 4 -12 12
-10 12 3 12 1 3 -9 -10 -10 -22 -3 -60 32 -26 24 -48 48 -48 53 0 5 -7 12 -15
15 -33 13 -69 44 -63 54 3 5 2 7 -4 4 -5 -3 -50 29 -100 72 -49 42 -107 91
-128 108 -45 38 -43 57 11 129 l37 48 -35 30 c-125 112 -148 136 -148 152 0
11 -18 32 -40 47 -33 23 -46 27 -73 21 -53 -11 -118 -47 -113 -61 3 -7 3 -13
1 -13 -2 0 -94 72 -204 159 -159 128 -219 183 -301 278 -137 158 -155 200
-125 299 5 15 -5 34 -34 69 -102 123 -92 183 51 293 68 52 601 393 693 444 39
21 79 38 90 38 11 0 46 -20 78 -45z m8937 -174 c-8 -6 -18 -7 -22 -5 -5 3 -8
2 -7 -3 1 -4 1 -10 -1 -13 -2 -7 -11 -51 -14 -75 -1 -11 -8 -32 -14 -47 -6
-14 -11 -59 -12 -100 -2 -116 -6 -161 -18 -198 -6 -19 -10 -44 -8 -55 2 -11
-1 -29 -7 -39 -5 -11 -11 -37 -12 -58 -1 -21 -5 -41 -8 -44 -3 -3 -3 -12 0
-20 3 -8 -2 -17 -11 -20 -9 -3 -13 -10 -10 -15 3 -5 0 -9 -6 -9 -6 0 -9 -4 -6
-9 9 -14 -12 -61 -27 -61 -7 0 -17 -15 -23 -32 -5 -18 -15 -32 -22 -31 -6 2
-11 0 -10 -5 3 -11 -38 -73 -44 -67 -3 3 -18 -8 -34 -24 -15 -16 -31 -28 -36
-25 -4 3 -8 0 -8 -7 0 -20 -73 -81 -97 -81 -16 0 -23 -7 -24 -22 -1 -11 -6 22
-10 74 -5 52 -26 293 -48 535 -22 242 -36 443 -33 447 4 4 91 9 192 11 102 1
232 3 290 5 67 1 100 -2 90 -7z m-7257 -1239 c15 -16 16 -25 8 -41 -16 -28
-14 -32 13 -21 20 7 29 3 62 -32 22 -22 52 -49 67 -60 25 -18 30 -18 50 -5 12
7 46 22 76 32 l54 18 18 -24 c31 -40 18 -149 -18 -149 -9 0 -12 -7 -7 -24 4
-16 -15 -75 -61 -187 -37 -90 -90 -226 -119 -304 -68 -181 -106 -254 -175
-341 -67 -85 -155 -147 -233 -164 -50 -11 -77 -10 -245 14 -216 31 -241 38
-278 72 -25 23 -26 29 -20 76 4 28 17 67 28 86 l21 35 -62 58 c-43 41 -62 66
-62 83 0 16 -11 32 -30 46 -38 27 -38 36 1 56 44 22 201 182 280 284 60 77
212 292 393 553 l68 98 76 -69 c42 -39 85 -79 95 -90z m8838 -937 c76 -302
108 -415 119 -418 8 -2 36 8 62 22 26 14 49 23 51 21 5 -6 147 -1845 147
-1902 0 -21 -3 -38 -7 -38 -53 3 -182 52 -191 73 -2 4 -7 5 -11 2 -4 -2 -24
10 -43 28 -23 21 -43 31 -58 29 -14 -2 -20 0 -16 7 4 6 2 11 -4 11 -6 0 -8 5
-5 10 4 6 3 9 -2 8 -15 -4 -53 22 -53 37 0 14 -12 19 -32 16 -5 0 -8 3 -8 9 0
5 -6 10 -13 10 -8 0 -14 7 -15 15 -1 8 -3 22 -4 29 -1 8 -5 14 -9 13 -4 -1
-15 7 -24 18 -13 16 -16 16 -11 3 3 -12 1 -15 -9 -12 -8 3 -11 12 -8 20 3 8 0
14 -6 14 -6 0 -11 -5 -11 -11 0 -8 -4 -9 -13 0 -8 6 -17 8 -20 5 -6 -7 -37 20
-37 31 0 4 8 4 18 1 16 -6 16 -5 0 7 -10 8 -14 17 -10 21 4 4 3 7 -3 6 -21 -5
-36 0 -30 9 3 5 1 12 -4 15 -5 4 -13 1 -17 -5 -5 -8 -3 -9 6 -4 8 5 11 4 6 -3
-8 -13 -34 -5 -56 17 -13 12 -11 14 13 9 22 -4 25 -3 15 9 -6 8 -17 12 -23 9
-7 -2 -17 6 -24 20 -6 13 -15 24 -21 24 -5 0 -10 7 -10 15 0 8 -6 14 -12 13
-7 -2 -12 3 -10 10 1 6 -2 12 -7 12 -5 0 -12 9 -16 20 -3 11 -9 19 -13 19 -26
-4 -32 2 -22 21 8 15 8 20 -2 20 -26 0 -72 69 -62 93 3 8 -2 17 -10 20 -9 4
-13 15 -11 27 2 11 1 20 -3 20 -4 0 -8 8 -9 18 -2 31 -9 53 -19 60 -11 8 -15
42 -4 42 4 0 4 17 0 38 -4 21 -6 46 -4 55 1 9 -1 17 -5 17 -4 0 -8 7 -8 15 0
8 5 12 10 8 5 -3 6 4 2 18 -5 13 -7 39 -7 57 1 17 -2 32 -7 32 -5 0 -8 43 -7
95 0 52 -2 95 -5 95 -6 0 -4 47 5 112 2 15 -1 25 -5 22 -5 -3 -9 0 -9 5 0 6 5
11 11 11 8 0 8 4 0 14 -8 10 -10 34 -6 69 3 30 1 66 -5 81 -5 14 -6 26 -2 26
4 0 6 60 6 133 -1 72 3 140 8 150 5 9 5 17 0 17 -4 0 -8 18 -9 40 -1 22 1 39
5 36 4 -2 8 21 10 51 1 30 -1 52 -6 49 -8 -5 -8 27 2 79 3 17 6 45 8 63 1 17
5 32 8 32 3 0 5 23 5 50 0 28 3 50 7 50 7 0 3 34 -6 49 -3 4 -1 22 4 40 5 19
5 29 -1 26 -5 -4 -9 -3 -9 2 0 4 12 14 28 20 33 15 435 162 443 163 4 0 53
-187 110 -415z m-2784 244 c152 -39 200 -55 196 -65 -3 -8 0 -14 6 -14 6 0 11
5 11 10 0 6 5 10 11 10 5 0 3 -10 -5 -22 -9 -12 -16 -30 -16 -40 0 -10 -7 -18
-17 -18 -13 0 -14 -3 -5 -12 14 -14 16 -32 4 -24 -10 6 -38 -41 -30 -50 4 -3
-1 -22 -9 -42 -15 -36 -20 -56 -25 -114 -1 -16 -6 -28 -11 -28 -5 0 -7 -10 -5
-22 2 -13 -3 -28 -10 -33 -7 -6 -14 -17 -16 -25 -2 -8 -7 -25 -13 -38 -5 -13
-8 -36 -7 -52 1 -16 -4 -31 -11 -34 -8 -3 -12 -18 -11 -35 1 -17 -1 -31 -4
-31 -3 0 -6 -10 -7 -22 -3 -35 -24 -78 -36 -71 -6 4 -8 -4 -5 -21 3 -15 1 -26
-6 -26 -8 0 -8 -2 0 -8 14 -8 9 -75 -6 -80 -6 -2 -8 -8 -4 -13 3 -5 1 -9 -4
-9 -6 0 -8 -8 -5 -19 3 -13 -2 -20 -18 -24 -13 -4 -20 -9 -17 -12 3 -4 0 -18
-8 -33 -8 -17 -10 -28 -3 -32 5 -4 7 -14 3 -23 -3 -9 -10 -14 -16 -11 -5 3 -8
-7 -6 -23 2 -17 -1 -27 -8 -26 -7 1 -10 -6 -7 -16 3 -10 0 -22 -7 -26 -8 -5
-8 -10 1 -21 9 -11 8 -14 -6 -14 -14 0 -16 -6 -13 -30 4 -24 1 -30 -10 -25 -9
3 -12 0 -9 -9 3 -8 -1 -20 -9 -27 -8 -6 -12 -14 -10 -17 3 -2 1 -13 -4 -22 -7
-13 -6 -20 5 -24 8 -3 15 -12 15 -21 0 -18 -16 -20 -23 -2 -4 8 -6 9 -6 0 -1
-6 6 -19 15 -27 14 -15 13 -16 -7 -16 -22 0 -22 0 -3 -22 13 -16 14 -19 2 -10
-19 15 -26 7 -23 -25 1 -13 -2 -23 -7 -23 -4 0 -8 -5 -8 -11 0 -5 5 -7 10 -4
6 3 10 1 10 -5 0 -6 -7 -13 -16 -17 -8 -3 -13 -12 -10 -19 3 -8 1 -14 -5 -14
-6 0 -8 -7 -5 -16 3 -9 2 -12 -5 -9 -7 5 -9 -7 -6 -34 2 -23 0 -41 -5 -41 -5
0 -6 -4 -3 -10 3 -5 0 -10 -7 -10 -10 0 -10 -2 0 -8 15 -10 7 -80 -12 -111 -7
-11 -6 -12 5 -6 12 7 12 6 1 -7 -9 -11 -9 -17 -2 -20 7 -2 4 -13 -8 -28 -10
-14 -17 -31 -14 -39 3 -8 0 -11 -7 -7 -6 4 -11 0 -11 -9 0 -9 -4 -13 -10 -10
-5 3 -10 1 -10 -6 0 -7 -8 -21 -17 -32 -10 -10 -18 -26 -18 -35 0 -10 -6 -16
-13 -14 -18 3 -10 -20 8 -26 7 -3 10 0 6 6 -4 6 3 16 14 22 19 10 19 9 8 -15
-6 -14 -17 -25 -25 -25 -11 0 -11 -5 -3 -20 8 -15 8 -20 -1 -20 -8 0 -7 -5 2
-17 13 -16 12 -17 -4 -4 -9 8 -21 10 -25 6 -4 -4 -1 -10 6 -12 6 -3 9 -9 6
-15 -4 -6 -1 -14 6 -18 8 -5 -2 -7 -23 -5 l-37 4 22 -32 23 -32 -29 19 c-25
16 -28 16 -23 2 4 -9 1 -16 -6 -16 -9 0 -9 -2 -1 -8 6 -4 10 -23 9 -42 -2 -19
2 -38 8 -42 8 -5 6 -8 -5 -8 -9 0 -19 6 -21 13 -3 7 -6 5 -6 -6 -1 -10 9 -22
22 -27 l22 -9 -22 0 c-12 -1 -25 -6 -28 -11 -4 -6 -1 -9 6 -8 7 2 15 -5 17
-14 2 -13 -3 -18 -20 -19 -13 0 -18 -3 -11 -5 7 -3 9 -12 6 -20 -3 -7 -10 -11
-17 -7 -6 4 -4 -2 4 -12 9 -11 10 -16 3 -11 -8 4 -13 2 -13 -8 0 -8 5 -18 10
-21 16 -10 12 -25 -5 -19 -8 4 -12 11 -8 17 4 6 0 8 -10 4 -14 -5 -15 -2 -7
18 5 14 8 25 7 26 -1 0 -12 2 -24 3 -19 2 -23 -2 -24 -23 0 -24 -1 -24 -9 -6
-8 19 -9 19 -9 -2 -1 -12 -8 -26 -18 -31 -9 -6 -14 -16 -10 -25 3 -9 2 -19 -4
-22 -5 -4 -7 -11 -4 -16 4 -5 -1 -9 -10 -9 -9 0 -13 -5 -10 -10 4 -6 10 -8 14
-6 4 3 8 -2 8 -10 0 -8 -6 -13 -12 -10 -6 2 -17 -5 -24 -16 -7 -11 -8 -17 -2
-13 6 3 11 2 11 -4 0 -12 -36 -24 -49 -16 -6 3 -6 -6 -1 -25 5 -19 5 -28 -1
-25 -5 4 -9 13 -9 22 0 9 -6 13 -14 10 -7 -3 -18 -1 -23 4 -6 6 -10 4 -10 -6
0 -11 7 -15 19 -12 21 6 23 -4 6 -21 -14 -14 -42 -16 -33 -2 3 5 0 7 -8 4 -15
-5 -17 -27 -4 -40 4 -4 7 -12 7 -18 0 -5 -9 0 -21 13 -16 17 -24 19 -34 11 -8
-7 -22 -10 -32 -7 -13 3 -11 5 7 6 l25 2 -25 10 c-20 8 -22 12 -10 20 11 6 4
8 -22 5 -30 -4 -39 -1 -52 20 -9 13 -12 24 -7 24 5 0 12 -6 14 -12 4 -9 6 -8
6 2 1 9 -7 26 -16 39 -16 23 -16 24 5 19 12 -4 22 -2 22 4 0 13 -26 38 -40 38
-6 0 -9 4 -6 9 3 4 -1 16 -8 27 -14 18 -11 44 4 44 5 0 7 -10 5 -21 -3 -12 -1
-19 2 -15 13 13 11 37 -4 43 -12 5 -12 7 -1 14 9 6 7 9 -8 9 -30 0 -36 24 -14
48 26 28 28 56 5 82 -11 12 -15 21 -10 20 19 -4 26 0 19 12 -12 19 -14 117 -3
124 8 4 7 10 -2 16 -12 8 -12 10 0 15 10 4 10 7 1 13 -6 4 -12 13 -13 21 -2 8
-6 20 -10 26 -6 9 -3 11 10 6 16 -6 16 -5 4 10 -9 11 -10 17 -2 17 7 0 6 9 -5
25 -10 16 -12 25 -5 25 11 0 7 13 -11 40 -1 3 4 17 14 31 9 14 13 31 9 38 -4
6 -7 41 -6 76 1 43 -2 62 -9 58 -6 -3 -5 0 1 7 10 11 9 18 -4 33 -14 15 -14
18 -3 15 15 -3 20 32 20 135 0 23 5 37 13 37 8 0 9 3 1 8 -6 4 -10 25 -10 47
0 23 -4 46 -8 53 -4 7 -4 12 1 12 4 0 8 27 8 60 0 33 -3 60 -8 60 -4 0 -5 6 0
13 4 6 8 21 9 32 1 11 5 30 8 43 2 12 1 22 -4 22 -7 0 -6 129 1 150 1 3 1 9 0
13 -1 4 4 17 10 29 6 11 7 18 1 14 -5 -3 -12 5 -14 19 -3 14 -1 25 3 25 5 0 9
5 9 11 0 5 -4 7 -10 4 -5 -3 -10 -2 -10 4 0 5 5 13 10 16 8 5 7 11 -1 21 -9
11 -9 14 1 14 9 0 11 9 7 30 -4 18 -2 30 4 30 6 0 8 4 4 9 -3 5 -1 12 4 16 6
3 8 12 4 20 -3 8 0 15 6 15 8 0 8 4 -1 14 -7 8 -17 13 -22 13 -4 -1 -10 6 -11
16 -2 9 -2 17 -1 17 1 0 108 -45 236 -100 129 -54 238 -96 242 -92 3 4 54 183
112 397 158 584 147 546 165 541 9 -3 107 -28 218 -57z m-5288 -54 c22 -24 41
-50 41 -58 0 -7 27 -37 61 -66 54 -48 62 -52 77 -39 9 8 41 24 70 36 l53 22
31 -23 c30 -22 30 -22 25 -97 -10 -122 -132 -634 -180 -750 -65 -158 -197
-290 -321 -321 -49 -12 -425 -7 -446 6 -5 3 -10 31 -10 61 l0 56 -75 -7 c-86
-8 -90 -4 -55 65 11 22 20 43 20 48 0 4 -27 30 -60 58 -52 42 -60 53 -58 79 3
28 5 30 42 27 21 -2 71 -20 110 -39 l71 -37 157 -4 c154 -4 159 -4 212 22 45
22 58 35 83 84 17 31 38 80 46 107 26 81 145 566 152 620 10 66 -7 49 -30 -30
-48 -169 -179 -577 -201 -625 -72 -159 -128 -182 -349 -145 -149 25 -148 25
-79 44 128 36 244 142 319 291 20 40 79 200 131 354 113 338 101 306 112 306
5 0 28 -20 51 -45z m791 -742 c11 -14 20 -31 20 -37 0 -7 39 -40 86 -74 l85
-62 54 46 c66 56 95 55 95 -4 0 -20 -7 -50 -15 -66 -8 -15 -15 -45 -15 -65 0
-63 -90 -381 -147 -521 -32 -80 -101 -200 -114 -200 -3 0 -14 25 -25 56 l-19
56 -99 -3 -100 -4 -8 32 -8 31 -103 -5 -102 -4 37 31 c50 42 123 148 153 222
13 33 36 111 50 172 26 118 95 452 95 462 0 10 58 -36 80 -63z m4344 -511 c3
-5 -1 -9 -9 -9 -8 0 -12 4 -9 9 3 4 7 8 9 8 2 0 6 -4 9 -8z m-4984 -388 c0
-15 -10 -16 -81 -11 -119 8 -127 27 -11 27 79 0 92 -2 92 -16z m-714 -121 l-2
-98 -41 -9 c-67 -14 -71 -9 -66 84 5 107 12 120 67 120 l43 0 -1 -97z m1338
70 c28 -93 65 -237 62 -240 -2 -2 -57 -8 -122 -13 -86 -7 -120 -6 -125 2 -7
11 -69 237 -69 251 0 3 37 8 83 10 45 1 101 4 124 5 32 2 43 -2 47 -15z
m-1736 -62 c24 -35 41 -70 38 -77 -3 -8 9 -29 27 -48 l32 -34 -55 -16 c-30 -8
-90 -19 -133 -22 l-77 -7 1 62 c1 50 4 58 14 45 11 -15 13 -15 37 0 24 16 24
18 12 64 -8 31 -17 46 -25 43 -30 -9 -141 -22 -152 -18 -7 2 22 20 63 40 59
29 86 36 125 34 50 -2 50 -2 93 -66z m-298 8 c0 -17 -4 -28 -10 -24 -5 3 -10
17 -10 31 0 13 5 24 10 24 6 0 10 -14 10 -31z m1038 -1 c48 -12 80 -24 72 -25
-8 -2 -53 8 -100 21 -107 31 -88 33 28 4z m60 -64 c169 -19 202 -38 52 -29
-91 6 -200 28 -200 41 0 5 -6 6 148 -12z m-1280 -195 l-3 -134 -90 -11 c-49
-6 -118 -14 -153 -18 l-63 -7 3 143 3 143 145 16 c80 8 149 12 153 9 4 -4 6
-67 5 -141z m6412 81 c-20 -13 -33 -13 -25 0 3 6 14 10 23 10 15 0 15 -2 2
-10z m-117 -315 c-3 -9 -8 -14 -10 -11 -3 3 -2 9 2 15 9 16 15 13 8 -4z m-101
-233 c-6 -2 -8 -11 -5 -20 3 -9 3 -14 -1 -11 -4 4 -9 19 -12 34 -4 25 -3 27
12 14 9 -7 12 -15 6 -17z m-41 -9 c9 -11 10 -14 2 -9 -9 5 -11 2 -7 -7 3 -8 1
-18 -5 -22 -6 -3 -12 -1 -12 4 -1 6 -2 17 -3 24 -2 12 2 27 8 27 2 0 10 -8 17
-17z m30 -40 c13 -16 12 -17 -3 -4 -10 7 -18 15 -18 17 0 8 8 3 21 -13z m-76
-63 c3 -6 -1 -7 -9 -4 -18 7 -21 14 -7 14 6 0 13 -4 16 -10z m-6665 -56 c0
-13 10 -14 64 -9 73 8 68 13 86 -97 7 -42 15 -80 19 -85 4 -6 28 -7 61 -3 30
4 58 6 62 4 3 -2 9 -22 13 -43 5 -33 3 -43 -15 -61 -17 -17 -21 -29 -16 -51 5
-27 -7 -43 -126 -173 -73 -80 -136 -142 -141 -139 -4 2 -31 50 -59 106 -55
110 -142 217 -305 371 -46 43 -83 82 -83 86 0 4 42 17 93 29 50 12 146 37 212
55 66 19 123 32 128 29 4 -2 7 -11 7 -19z m6411 -37 c-1 -12 -15 -9 -19 4 -3
6 1 10 8 8 6 -3 11 -8 11 -12z m-5894 -194 c-9 -9 -19 -14 -23 -11 -10 10 6
28 24 28 15 0 15 -1 -1 -17z m430 -509 c-3 -3 -12 -4 -19 -1 -8 3 -5 6 6 6 11
1 17 -2 13 -5z"/>
<path d="M9502 11900 c0 -14 2 -19 5 -12 2 6 2 18 0 25 -3 6 -5 1 -5 -13z"/>
<path d="M13858 9673 c6 -2 18 -2 25 0 6 3 1 5 -13 5 -14 0 -19 -2 -12 -5z"/>
<path d="M3965 4037 c-28 -15 -55 -46 -92 -102 -227 -351 -281 -432 -347 -522
-97 -133 -128 -153 -248 -165 -51 -5 -94 -11 -96 -13 -11 -11 143 -46 252 -56
145 -15 191 -6 238 44 34 37 36 41 138 297 42 107 105 264 139 347 34 84 61
162 59 173 -3 19 -4 19 -43 -3z"/>
<path d="M9886 2342 c-3 -5 1 -9 9 -9 8 0 12 4 9 9 -3 4 -7 8 -9 8 -2 0 -6 -4
-9 -8z"/>
<path d="M9615 1350 c-3 -5 -1 -10 4 -10 6 0 11 5 11 10 0 6 -2 10 -4 10 -3 0
-8 -4 -11 -10z"/>
<path d="M9495 1140 c-17 -8 -17 -9 7 -7 15 1 24 5 22 9 -3 4 -6 8 -7 7 -1 0
-11 -4 -22 -9z"/>
<path d="M9475 1090 c-3 -6 1 -7 9 -4 18 7 21 14 7 14 -6 0 -13 -4 -16 -10z"/>
<path d="M9467 1044 c-4 -4 -4 -11 -1 -15 7 -12 44 -11 44 0 0 5 -10 7 -22 3
-14 -3 -19 -2 -14 6 8 13 3 16 -7 6z"/>
<path d="M9075 890 c4 -6 11 -8 16 -5 14 9 11 15 -7 15 -8 0 -12 -5 -9 -10z"/>
<path d="M9206 763 c-6 -14 -5 -15 5 -6 7 7 10 15 7 18 -3 3 -9 -2 -12 -12z"/>
<path d="M9217 743 c-10 -9 -9 -33 1 -33 4 0 8 9 9 20 2 21 0 24 -10 13z"/>
<path d="M5532 2540 c0 -14 2 -19 5 -12 2 6 2 18 0 25 -3 6 -5 1 -5 -13z"/>
<path d="M6426 1350 c-15 -23 -26 -43 -24 -45 2 -1 13 -7 25 -14 20 -10 22 -8
28 33 10 66 2 73 -29 26z"/>
<path d="M6675 688 c4 -12 14 -35 21 -50 8 -15 14 -34 14 -43 0 -8 4 -15 9
-15 12 0 25 -37 24 -70 0 -14 -18 -61 -38 -104 -21 -44 -44 -105 -51 -135 -18
-78 -49 -185 -58 -199 -4 -7 -11 -26 -16 -42 l-9 -30 105 0 105 0 -6 187 c-4
104 -8 208 -10 233 -1 25 1 50 5 55 3 6 7 20 8 33 0 13 12 38 26 57 l25 32
-22 20 c-31 27 -88 68 -115 82 -22 12 -23 11 -17 -11z"/>
</g>
</svg>
